<?xml version="1.0" encoding="UTF-8"?>
<svg width="8.4127mm" height="8.586mm" version="1.1" viewBox="0 0 8.4127 8.586" xml:space="preserve" xmlns="http://www.w3.org/2000/svg"><g transform="matrix(.021908 0 0 .02236 4.3932e-6 -1.5973e-5)"><path d="m337.09 0c25.891 0 46.914 21.023 46.914 46.914v290.17c0 25.895-21.023 46.918-46.914 46.918h-290.17c-25.891 0-46.914-21.023-46.914-46.914v-290.17c0-25.891 21.023-46.914 46.914-46.914zm-145.09 60.75c-35.645 0-40.117 0.152-54.113 0.789-13.969 0.637-23.512 2.856-31.86 6.102-8.632 3.355-15.949 7.843-23.246 15.136-7.297 7.297-11.785 14.618-15.14 23.246-3.246 8.348-5.465 17.891-6.102 31.86-0.637 14-0.789 18.472-0.789 54.117s0.152 40.117 0.789 54.113c0.637 13.969 2.856 23.512 6.102 31.86 3.355 8.629 7.843 15.949 15.14 23.246s14.617 11.785 23.246 15.14c8.348 3.246 17.891 5.465 31.86 6.102 13.996 0.637 18.468 0.789 54.113 0.789s40.117-0.152 54.113-0.789c13.969-0.637 23.512-2.856 31.86-6.102 8.629-3.355 15.949-7.843 23.246-15.14s11.785-14.617 15.14-23.246c3.246-8.348 5.465-17.891 6.102-31.86 0.637-13.996 0.789-18.468 0.789-54.113s-0.152-40.117-0.789-54.113c-0.637-13.969-2.856-23.512-6.102-31.86-3.355-8.629-7.843-15.949-15.14-23.246s-14.617-11.785-23.246-15.136c-8.348-3.247-17.891-5.465-31.86-6.102-13.996-0.641-18.468-0.793-54.113-0.793zm0 23.648c35.047 0 39.195 0.133 53.035 0.766 12.797 0.586 19.746 2.723 24.371 4.52 6.125 2.382 10.5 5.226 15.09 9.816 4.594 4.594 7.438 8.965 9.816 15.09 1.797 4.625 3.934 11.574 4.52 24.371 0.633 13.84 0.766 17.992 0.766 53.035 0 35.047-0.133 39.195-0.766 53.035-0.582 12.797-2.723 19.746-4.52 24.371-2.382 6.125-5.226 10.5-9.816 15.09-4.594 4.594-8.965 7.438-15.09 9.817-4.625 1.796-11.574 3.933-24.371 4.519-13.836 0.633-17.988 0.766-53.035 0.766s-39.199-0.133-53.035-0.766c-12.797-0.582-19.746-2.723-24.371-4.519-6.125-2.383-10.5-5.227-15.09-9.817-4.594-4.594-7.438-8.965-9.816-15.09-1.797-4.625-3.934-11.574-4.52-24.371-0.633-13.84-0.766-17.992-0.766-53.035 0-35.047 0.133-39.195 0.766-53.035 0.586-12.797 2.723-19.746 4.52-24.371 2.378-6.125 5.226-10.5 9.816-15.09 4.594-4.594 8.965-7.438 15.09-9.816 4.625-1.797 11.574-3.934 24.371-4.52 13.84-0.633 17.992-0.766 53.035-0.766zm0 40.204c-37.223 0-67.398 30.175-67.398 67.398s30.175 67.398 67.398 67.398 67.398-30.175 67.398-67.398-30.175-67.398-67.398-67.398zm0 111.15c-24.164 0-43.75-19.586-43.75-43.75s19.586-43.75 43.75-43.75 43.75 19.586 43.75 43.75-19.586 43.75-43.75 43.75zm85.812-113.81c0 8.699-7.05 15.75-15.75 15.75-8.699 0-15.75-7.051-15.75-15.75 0-8.7 7.051-15.75 15.75-15.75 8.7 0 15.75 7.05 15.75 15.75z" fill-rule="evenodd"/></g></svg>
